<?xml version="1.0" encoding="UTF-8" standalone="no"?>
<!-- Created with Inkscape (http://www.inkscape.org/) -->

<svg
   xmlns:dc="http://purl.org/dc/elements/1.1/"
   xmlns:cc="http://creativecommons.org/ns#"
   xmlns:rdf="http://www.w3.org/1999/02/22-rdf-syntax-ns#"
   xmlns:svg="http://www.w3.org/2000/svg"
   xmlns="http://www.w3.org/2000/svg"
   version="1.1"
   width="535.28741"
   height="149.98819"
   id="svg3366">
  <defs
     id="defs3368" />
  <metadata
     id="metadata3371">
    <rdf:RDF>
      <cc:Work
         rdf:about="">
        <dc:format>image/svg+xml</dc:format>
        <dc:type
           rdf:resource="http://purl.org/dc/dcmitype/StillImage" />
        <dc:title></dc:title>
      </cc:Work>
    </rdf:RDF>
  </metadata>
  <path
     d="m 192.90446,42.71108 c 4.23,-0.809 10.35,-1.35 16.74,-1.35 8.729,0 14.579,1.44 18.719,4.86 3.33,2.79 5.22,7.02 5.22,12.239 0,7.83 -5.31,13.14 -11.069,15.119 v 0.271 c 4.41,1.62 7.02,5.85 8.46,11.699 1.979,7.56 3.6,14.579 4.77,16.919 h -11.34 c -0.899,-1.799 -2.43,-6.749 -4.05,-14.309 -1.8,-7.92 -4.59,-10.439 -10.89,-10.62 h -5.579 v 24.929 h -10.98 v -59.757 z m 10.98,26.729 h 6.569 c 7.47,0 12.06,-3.96 12.06,-9.989 0,-6.57 -4.59,-9.72 -11.789,-9.72 -3.51,0 -5.76,0.271 -6.84,0.54 v 19.169 z"
     id="path120" />
  <path
     d="m 277.68146,91.93908 c 0,3.96 0.181,7.83 0.721,10.529 h -9.99 l -0.81,-4.859 h -0.27 c -2.61,3.42 -7.2,5.85 -12.96,5.85 -8.819,0 -13.77,-6.39 -13.77,-13.049 0,-10.98 9.81,-16.65 26.01,-16.56 v -0.72 c 0,-2.881 -1.17,-7.65 -8.91,-7.65 -4.32,0 -8.82,1.35 -11.789,3.24 l -2.16,-7.199 c 3.239,-1.98 8.909,-3.871 15.839,-3.871 14.04,0 18.089,8.91 18.089,18.54 v 15.749 z m -10.798,-10.888 c -7.83,-0.091 -15.3,1.529 -15.3,8.189 0,4.319 2.79,6.299 6.3,6.299 4.5,0 7.65,-2.879 8.73,-6.029 0.27,-0.811 0.27,-1.62 0.27,-2.43 v -6.029 z"
     id="path122" />
  <path
     d="m 321.60146,101.11908 c -2.34,1.08 -6.93,2.25 -12.419,2.25 -13.68,0 -22.589,-8.82 -22.589,-22.409 0,-13.14 8.999,-23.31 24.389,-23.31 4.05,0 8.189,0.9 10.709,1.98 l -1.979,8.369 c -1.8,-0.899 -4.41,-1.709 -8.37,-1.709 -8.459,0 -13.499,6.209 -13.409,14.219 0,9 5.85,14.13 13.409,14.13 3.78,0 6.57,-0.81 8.73,-1.71 l 1.529,8.19 z"
     id="path124" />
  <path
     d="m 340.86146,77.90008 h 0.181 c 1.079,-1.71 2.34,-3.6 3.42,-5.13 l 10.71,-14.13 h 13.318 l -16.289,17.91 18.539,25.918 h -13.589 l -12.6,-19.349 -3.69,4.409 v 14.939 h -11.069 v -63.895 h 11.069 v 39.328 z"
     id="path126" />
  <path
     d="m 427.61946,75.83008 c -0.45,-8.459 -0.99,-18.719 -0.99,-26.188 h -0.18 c -2.16,7.02 -4.59,14.669 -7.65,23.039 l -10.709,29.429 h -5.939 l -9.9,-28.889 c -2.88,-8.641 -5.22,-16.379 -6.93,-23.579 h -0.18 c -0.18,7.56 -0.63,17.64 -1.17,26.819 l -1.62,26.008 h -7.47 l 4.23,-60.657 h 9.988 l 10.35,29.339 c 2.521,7.47 4.5,14.129 6.121,20.43 h 0.18 c 1.619,-6.12 3.779,-12.779 6.479,-20.43 l 10.8,-29.339 h 9.989 l 3.78,60.657 h -7.74 l -1.439,-26.639 z"
     id="path128"
     style="fill:#1c75bc" />
  <path
     d="m 479.18846,92.02908 c 0,3.78 0.181,7.471 0.63,10.439 h -7.109 l -0.631,-5.489 h -0.27 c -2.43,3.42 -7.109,6.479 -13.319,6.479 -8.819,0 -13.319,-6.209 -13.319,-12.51 0,-10.529 9.359,-16.289 26.189,-16.199 v -0.899 c 0,-3.511 -0.99,-10.079 -9.9,-9.989 -4.14,0 -8.369,1.17 -11.43,3.239 l -1.799,-5.31 c 3.6,-2.25 8.908,-3.779 14.398,-3.779 13.32,0 16.56,9.089 16.56,17.729 v 16.289 z m -7.649,-11.789 c -8.641,-0.18 -18.449,1.35 -18.449,9.81 0,5.22 3.42,7.56 7.379,7.56 5.76,0 9.45,-3.6 10.71,-7.289 0.271,-0.9 0.36,-1.801 0.36,-2.521 v -7.56 z"
     id="path130"
     style="fill:#1c75bc" />
  <path
     d="m 491.96846,73.13108 c 0,-5.58 -0.18,-10.08 -0.359,-14.22 h 7.02 l 0.449,7.47 h 0.181 c 3.149,-5.311 8.37,-8.369 15.479,-8.369 10.619,0 18.539,8.909 18.539,22.049 0,15.659 -9.629,23.398 -19.889,23.398 -5.76,0 -10.8,-2.52 -13.41,-6.84 h -0.18 v 23.67 h -7.83 v -47.158 z m 7.831,11.609 c 0,1.17 0.09,2.25 0.359,3.24 1.44,5.489 6.211,9.27 11.881,9.27 8.369,0 13.229,-6.84 13.229,-16.83 0,-8.64 -4.59,-16.109 -12.959,-16.109 -5.4,0 -10.529,3.78 -11.97,9.72 -0.271,0.99 -0.54,2.16 -0.54,3.149 v 7.56 z"
     id="path132"
     style="fill:#1c75bc" />
  <path
     d="m 2.1174576,14.995097 150.0220124,0"
     id="line138"
     style="opacity:0.45;fill:none;stroke:#000000;stroke-width:0.1" />
  <path
     d="m 2.1174576,134.99516 150.0220124,0"
     id="line140"
     style="opacity:0.45;fill:none;stroke:#000000;stroke-width:0.1" />
  <path
     d="m 2.1174576,104.99516 150.0220124,0"
     id="line142"
     style="opacity:0.45;fill:none;stroke:#000000;stroke-width:0.1" />
  <path
     d="m 2.1174576,89.995155 150.0220124,0"
     id="line144"
     style="opacity:0.45;fill:none;stroke:#000000;stroke-width:0.1" />
  <path
     d="m 2.1174576,74.995155 150.0220124,0"
     id="line146"
     style="opacity:0.45;fill:none;stroke:#000000;stroke-width:0.1" />
  <path
     d="m 2.1174576,59.995159 150.0220124,0"
     id="line148"
     style="opacity:0.45;fill:none;stroke:#000000;stroke-width:0.1" />
  <path
     d="m 2.1174576,44.995159 150.0220124,0"
     id="line150"
     style="opacity:0.45;fill:none;stroke:#000000;stroke-width:0.1" />
  <path
     d="m 2.1174576,30.536051 150.0220124,0"
     id="line152"
     style="opacity:0.45;fill:none;stroke:#000000;stroke-width:0.1" />
  <path
     d="m 17.117458,149.99309 0,-149.99799291"
     id="line154"
     style="opacity:0.45;fill:none;stroke:#000000;stroke-width:0.1" />
  <path
     d="m 32.117458,149.99309 0,-149.99799291"
     id="line156"
     style="opacity:0.45;fill:none;stroke:#000000;stroke-width:0.1" />
  <path
     d="m 47.117455,149.99309 0,-149.99799291"
     id="line158"
     style="opacity:0.45;fill:none;stroke:#000000;stroke-width:0.1" />
  <path
     d="m 62.117458,149.99309 0,-149.99799291"
     id="line160"
     style="opacity:0.45;fill:none;stroke:#000000;stroke-width:0.1" />
  <path
     d="m 77.117455,149.99309 0,-149.99799291"
     id="line162"
     style="opacity:0.45;fill:none;stroke:#000000;stroke-width:0.1" />
  <path
     d="m 92.117455,149.99309 0,-149.99799291"
     id="line164"
     style="opacity:0.45;fill:none;stroke:#000000;stroke-width:0.1" />
  <path
     d="m 107.11745,149.99309 0,-149.99799291"
     id="line166"
     style="opacity:0.45;fill:none;stroke:#000000;stroke-width:0.1" />
  <path
     d="m 122.11745,149.99309 0,-149.99799291"
     id="line168"
     style="opacity:0.45;fill:none;stroke:#000000;stroke-width:0.1" />
  <path
     d="m 137.11746,149.99309 0,-149.99799291"
     id="line170"
     style="opacity:0.45;fill:none;stroke:#000000;stroke-width:0.1" />
  <path
     d="m 2.0724576,120.6381 150.0220124,0"
     id="line172"
     style="opacity:0.45;fill:none;stroke:#000000;stroke-width:0.1" />
  <path
     d="m 88.869457,135.08708 48.726003,-48.727 v -16.352 c 0,-8.282 -1.854,-16.151 -5.169,-23.214 l -65.924003,65.924 22.367,22.369 z"
     id="path176"
     style="fill:#1c75bc" />
  <path
     d="m 61.834457,108.53608 67.474003,-67.475 c -5.676,-9.106 -13.936,-16.455 -23.734,-21 l -66.108003,66.108 22.368,22.367 z"
     id="path178"
     style="fill:#1c75bc" />
  <path
     d="m 99.735457,17.75109 c -5.403,-1.787 -11.17,-2.756 -17.153,-2.756 h -65.465 v 119.99999 h 63.96 l -49.292,-49.293 67.95,-67.95099 z"
     id="path180" />
  <path
     d="m 95.737,135.461 39.785,0 0,-39.785 z"
     transform="translate(2.0724573,-0.46591)"
     id="polygon182"
     style="fill:#1c75bc" />
</svg>
